<svg xmlns="http://www.w3.org/2000/svg" width="92.774" height="84.706" viewBox="0 0 92.774 84.706">
  <path id="Icon_material-outline-add-a-photo" data-name="Icon material-outline-add-a-photo" d="M84.706,21.668H71.92L64.538,13.6h-24.2v8.067H60.989l7.382,8.067H84.706v48.4H20.168v-36.3H12.1v36.3a8.091,8.091,0,0,0,8.067,8.067H84.706a8.091,8.091,0,0,0,8.067-8.067v-48.4A8.091,8.091,0,0,0,84.706,21.668ZM32.269,53.937A20.168,20.168,0,1,0,52.437,33.769,20.176,20.176,0,0,0,32.269,53.937Zm20.168-12.1a12.1,12.1,0,1,1-12.1,12.1A12.136,12.136,0,0,1,52.437,41.836ZM20.168,21.668h12.1V13.6h-12.1V1.5H12.1V13.6H0v8.067H12.1v12.1h8.067Z" transform="translate(0 -1.5)" fill="#8d8d8d"/>
</svg>
