<svg id="Logo_weiße-Schrift" xmlns="http://www.w3.org/2000/svg" xmlns:xlink="http://www.w3.org/1999/xlink" width="285.776" height="319.45" viewBox="0 0 285.776 319.45">
  <defs>
    <clipPath id="clip-path">
      <path id="Pfad_3" data-name="Pfad 3" d="M141,89H287.207V267.87H141Zm0,0" transform="translate(-141 -89)"/>
    </clipPath>
    <clipPath id="clip-path-2">
      <path id="Pfad_2" data-name="Pfad 2" d="M149.781,112.754c1.118-7.272,8.293-12.752,14.205-14.812a43.841,43.841,0,0,1,11.277-2.521c3.293-.146,3.918,2.321,2.072,3.293a89.445,89.445,0,0,0-22.863,16.842C152.411,117.731,149.319,115.7,149.781,112.754Zm32.822,91.1a6.291,6.291,0,0,0,4.033-1.118c3.8-2.7,7.735-7.357,10.421-11.44a59.053,59.053,0,0,0,7.838-17.122c1.464-5.383,5.183-5.96,6.694-5.96a7.52,7.52,0,0,1,1.81.23c3.792.943,5.7,4.921,5.074,10.668a30.915,30.915,0,0,1-3.458,10.488,6.276,6.276,0,0,0-.826,4.854,5.6,5.6,0,0,0,2.7,3.523,4.239,4.239,0,0,0,2.188.59c2.339,0,5.036-1.756,6.55-4.277l.17-.261a37.088,37.088,0,0,0,5.839-16.476c.759-9.5-1.975-16.2-8.36-20.5a20.349,20.349,0,0,0-11.325-3.226,21.484,21.484,0,0,0-6.453.972c-8.986,2.916-10.911,8.743-12.972,14.9a57.489,57.489,0,0,1-6.567,14.521c-2.126,3.226-4.1,6.945-6.951,9.824-1.167,1.173-3.621,4.265-1.148,7.474a6.224,6.224,0,0,0,4.623,2.272Zm-19.82-67.411a4.678,4.678,0,0,0,3.755-1.89c10.6-14.126,24.972-21.849,42.719-22.948,1.022-.067,2.122-.1,3.257-.1,8.858,0,17.862,1.823,24.084,4.9a4.692,4.692,0,0,0,2.042.474,4.764,4.764,0,0,0,4.277-2.765,4.988,4.988,0,0,0,.2-3.717,4.778,4.778,0,0,0-2.425-2.783c-7.436-3.67-18.008-5.858-28.294-5.858-1.282,0-2.534.03-3.706.115-20.312,1.246-37.482,10.481-49.645,26.715a4.989,4.989,0,0,0,.838,6.847,4.639,4.639,0,0,0,2.734,1.022A.547.547,0,0,1,162.783,136.444Zm-15.146,61.729a54.758,54.758,0,0,0,22.869-21.957c2.9-5.151,5.019-9.843,6.878-13.974,3.493-7.723,6.732-10.948,11.429-15.359a5.272,5.272,0,0,0,.686-7.145c-1.081-1.3-3.178-2.929-4.921-2.929a5.72,5.72,0,0,0-3.949,1.532c-6.635,6.155-10.11,12.132-13.6,19.848-1.859,4.12-3.786,8.379-6.453,13.124A43.533,43.533,0,0,1,145.826,186.9a4.029,4.029,0,0,0-1.938,4.4c.541,2.089,1.2,4.2,1.938,6.251a1.266,1.266,0,0,0,1.2.778A1.162,1.162,0,0,0,147.636,198.173Zm-4.921-27.832a1.239,1.239,0,0,0,.857-.347c4.131-4.1,7.637-9.661,11.373-18.044a3.986,3.986,0,0,0-.03-3.391,4.821,4.821,0,0,0-3.111-2.534,4.681,4.681,0,0,0-1.349-.182,5.331,5.331,0,0,0-4.777,3.013,39.406,39.406,0,0,0-3.87,13.6c-.558,4.623-.115,7.393.036,7.539A1.165,1.165,0,0,0,142.715,170.341ZM216.627,238.9a8.667,8.667,0,0,0,3.8-.985c7.589-4.229,18.228-16.1,23.13-22.583,21.995-29.09,16.168-57.5,4.5-72.995-8.136-10.8-20.4-16.739-34.5-16.739a53.168,53.168,0,0,0-8.3.656c-3.063.481-4.691,4.248-4.21,7.327a5.649,5.649,0,0,0,5.547,4.758,5.429,5.429,0,0,0,.869-.067,40.613,40.613,0,0,1,6.391-.51c14.88,0,22.469,7.685,25.233,11.373,9.314,12.364,13.731,35.324-4.478,59.4-4.756,6.27-14.222,16.671-20.214,21.562a6.492,6.492,0,0,0-2.321,4.775,3.622,3.622,0,0,0,1.252,2.893A5.03,5.03,0,0,0,216.627,238.9Zm-37.81.742c10.056-5.925,22.93-14.9,30.731-23.72a5.546,5.546,0,0,0,1.317-4.71,5.647,5.647,0,0,0-2.927-4.016,5.167,5.167,0,0,0-2.486-.625,6.01,6.01,0,0,0-4.478,2.078c-8.81,9.872-24.345,19.539-33.648,24.588a.928.928,0,0,0-.462.644.949.949,0,0,0,.232.79c1.3,1.386,2.649,2.753,4,4.066a6.331,6.331,0,0,0,4.448,1.8A6.222,6.222,0,0,0,178.817,239.641Zm14.716,15.146a7.356,7.356,0,0,0,3.8-1.07c1.252-.778,2.534-1.579,3.853-2.417a4.811,4.811,0,0,0,1.167-7.03,4.656,4.656,0,0,0-3.719-1.731,5.4,5.4,0,0,0-2.879.838c-3.209,2.059-6.568,4.083-9.947,6.046a.9.9,0,0,0-.443.722.876.876,0,0,0,.364.761c1.283.935,2.552,1.823,3.786,2.661A7.258,7.258,0,0,0,193.533,254.787Zm84.434-54.524a81.279,81.279,0,0,0,3.439-36.077c-.51-4.07-1.233-8.385-2.139-12.711a87.752,87.752,0,0,0-3.621-9.83,65.371,65.371,0,0,0-16.6-22.8,4.875,4.875,0,0,0-6.452,7.31,55.762,55.762,0,0,1,14.126,19.424c7.278,16.526,8.128,34.006,2.454,50.569a4.761,4.761,0,0,0,.23,3.717,4.854,4.854,0,0,0,2.8,2.473,4.744,4.744,0,0,0,1.58.261A4.821,4.821,0,0,0,277.967,200.263Zm-64.81,66.2a148.015,148.015,0,0,0,42.767-29.218,122.288,122.288,0,0,0,11.837-14.157,4.963,4.963,0,0,0-1.616-7.181,4.681,4.681,0,0,0-2.3-.608,5.322,5.322,0,0,0-4.284,2.243C247.9,233.911,229.944,248.662,206.2,261.4a1.223,1.223,0,0,0-.663,1.106,1.2,1.2,0,0,0,.673,1.081c2.686,1.367,4.727,2.291,5.96,2.831a1.3,1.3,0,0,0,.493.1A.89.89,0,0,0,213.157,266.459ZM160.184,222.6a5.794,5.794,0,0,0,3.013-.838c1.428-.855,2.862-1.779,4.259-2.733a6.3,6.3,0,0,0,1.532-8.939,6.091,6.091,0,0,0-5-2.436,7.11,7.11,0,0,0-3.949,1.2,76.072,76.072,0,0,1-7.309,4.315,1.255,1.255,0,0,0-.512,1.744c.955,1.7,1.975,3.372,3.044,5.019A5.8,5.8,0,0,0,160.184,222.6Zm53.6-133.137a19.005,19.005,0,0,0-7.181,0c-2.436.492-2.139,2.831.249,3.044,1.137.1,3.361.067,3.361.067s2.216.03,3.353-.067C215.94,92.3,215.9,89.873,213.782,89.466ZM144.35,132.823c.7-1.215,1.89-3.719,1.89-3.719s1.233-2.473,1.779-3.773c1.118-2.745-2.551-4.259-4.746-.905a13.156,13.156,0,0,0-2.1,7.133C141.153,135.539,142.867,135.411,144.35,132.823Zm129.024-17.268a90.264,90.264,0,0,0-22.869-16.842c-1.842-.972-1.215-3.421,2.078-3.293a44.065,44.065,0,0,1,11.277,2.521c5.906,2.06,13.1,7.54,14.205,14.812C278.49,115.7,275.4,117.731,273.374,115.555Zm13.281,16.016a12.861,12.861,0,0,0-2.108-7.127c-2.188-3.36-5.858-1.842-4.739.905.529,1.319,1.779,3.773,1.779,3.773s1.185,2.5,1.89,3.717C284.96,135.411,286.656,135.539,286.656,131.571Zm0,0" transform="translate(-141.172 -89.124)"/>
    </clipPath>
    <linearGradient id="linear-gradient" x1="-5.379" y1="-2.307" x2="-4.137" y2="-1.422" gradientUnits="objectBoundingBox">
      <stop offset="0" stop-color="#49bccb"/>
      <stop offset="0.063" stop-color="#49bccb"/>
      <stop offset="0.094" stop-color="#49bccb"/>
      <stop offset="0.102" stop-color="#49bccc"/>
      <stop offset="0.109" stop-color="#49bccc"/>
      <stop offset="0.117" stop-color="#49bccd"/>
      <stop offset="0.125" stop-color="#49bccd"/>
      <stop offset="0.133" stop-color="#49bcce"/>
      <stop offset="0.141" stop-color="#49bcce"/>
      <stop offset="0.148" stop-color="#49bccf"/>
      <stop offset="0.156" stop-color="#49bcd0"/>
      <stop offset="0.164" stop-color="#49bcd0"/>
      <stop offset="0.172" stop-color="#49bcd1"/>
      <stop offset="0.18" stop-color="#49bcd1"/>
      <stop offset="0.188" stop-color="#49bcd2"/>
      <stop offset="0.195" stop-color="#49bcd2"/>
      <stop offset="0.203" stop-color="#49bcd3"/>
      <stop offset="0.211" stop-color="#49bcd3"/>
      <stop offset="0.219" stop-color="#49bcd4"/>
      <stop offset="0.227" stop-color="#49bcd5"/>
      <stop offset="0.234" stop-color="#49bcd5"/>
      <stop offset="0.242" stop-color="#49bcd6"/>
      <stop offset="0.25" stop-color="#49bcd6"/>
      <stop offset="0.258" stop-color="#49bcd7"/>
      <stop offset="0.266" stop-color="#49bcd7"/>
      <stop offset="0.273" stop-color="#49bcd8"/>
      <stop offset="0.281" stop-color="#49bcd9"/>
      <stop offset="0.289" stop-color="#49bcd9"/>
      <stop offset="0.297" stop-color="#49bcda"/>
      <stop offset="0.305" stop-color="#49bcda"/>
      <stop offset="0.313" stop-color="#49bcdb"/>
      <stop offset="0.32" stop-color="#49bcdb"/>
      <stop offset="0.328" stop-color="#49bcdc"/>
      <stop offset="0.336" stop-color="#49bcdc"/>
      <stop offset="0.344" stop-color="#49bcdd"/>
      <stop offset="0.352" stop-color="#49bcde"/>
      <stop offset="0.359" stop-color="#49bcde"/>
      <stop offset="0.367" stop-color="#49bcdf"/>
      <stop offset="0.375" stop-color="#49bcdf"/>
      <stop offset="0.383" stop-color="#49bce0"/>
      <stop offset="0.391" stop-color="#49bce0"/>
      <stop offset="0.398" stop-color="#49bce1"/>
      <stop offset="0.406" stop-color="#49bce1"/>
      <stop offset="0.414" stop-color="#49bce2"/>
      <stop offset="0.422" stop-color="#49bce3"/>
      <stop offset="0.43" stop-color="#49bce3"/>
      <stop offset="0.438" stop-color="#49bce4"/>
      <stop offset="0.445" stop-color="#49bce4"/>
      <stop offset="0.453" stop-color="#49bce5"/>
      <stop offset="0.46" stop-color="#49bce5"/>
      <stop offset="0.461" stop-color="#49bce6"/>
      <stop offset="0.469" stop-color="#49bce6"/>
      <stop offset="0.477" stop-color="#49bce6"/>
      <stop offset="0.484" stop-color="#49bce7"/>
      <stop offset="0.492" stop-color="#49bce8"/>
      <stop offset="0.5" stop-color="#49bce8"/>
      <stop offset="0.508" stop-color="#49bce9"/>
      <stop offset="0.516" stop-color="#49bce9"/>
      <stop offset="0.523" stop-color="#49bcea"/>
      <stop offset="0.531" stop-color="#49bcea"/>
      <stop offset="0.539" stop-color="#49bceb"/>
      <stop offset="0.54" stop-color="#49bceb"/>
      <stop offset="0.547" stop-color="#49bcec"/>
      <stop offset="0.555" stop-color="#49bcec"/>
      <stop offset="0.563" stop-color="#49bced"/>
      <stop offset="0.57" stop-color="#49bced"/>
      <stop offset="0.578" stop-color="#49bcee"/>
      <stop offset="0.586" stop-color="#49bcee"/>
      <stop offset="0.594" stop-color="#49bcef"/>
      <stop offset="0.602" stop-color="#49bcef"/>
      <stop offset="0.609" stop-color="#49bcf0"/>
      <stop offset="0.617" stop-color="#49bcf1"/>
      <stop offset="0.625" stop-color="#49bcf1"/>
      <stop offset="0.633" stop-color="#49bcf2"/>
      <stop offset="0.641" stop-color="#49bcf2"/>
      <stop offset="0.648" stop-color="#49bcf3"/>
      <stop offset="0.656" stop-color="#49bcf3"/>
      <stop offset="0.664" stop-color="#49bcf4"/>
      <stop offset="0.672" stop-color="#49bcf4"/>
      <stop offset="0.68" stop-color="#49bcf5"/>
      <stop offset="0.688" stop-color="#49bcf6"/>
      <stop offset="0.695" stop-color="#49bcf6"/>
      <stop offset="0.703" stop-color="#49bcf7"/>
      <stop offset="0.711" stop-color="#49bcf7"/>
      <stop offset="0.719" stop-color="#49bcf8"/>
      <stop offset="0.727" stop-color="#49bcf8"/>
      <stop offset="0.734" stop-color="#49bcf9"/>
      <stop offset="0.742" stop-color="#49bcf9"/>
      <stop offset="0.75" stop-color="#49bcfa"/>
      <stop offset="0.758" stop-color="#49bcfb"/>
      <stop offset="0.766" stop-color="#49bcfb"/>
      <stop offset="0.773" stop-color="#49bcfc"/>
      <stop offset="0.781" stop-color="#49bcfc"/>
      <stop offset="0.789" stop-color="#49bcfd"/>
      <stop offset="0.797" stop-color="#49bcfd"/>
      <stop offset="0.805" stop-color="#49bcfe"/>
      <stop offset="0.813" stop-color="#49bcfe"/>
      <stop offset="0.875" stop-color="#49bcff"/>
      <stop offset="1" stop-color="#49bcff"/>
    </linearGradient>
  </defs>
  <g id="Gruppe_2" data-name="Gruppe 2" transform="translate(68.812)" clip-path="url(#clip-path)">
    <g id="Gruppe_1" data-name="Gruppe 1" transform="translate(0.267 0.192)" clip-path="url(#clip-path-2)">
      <path id="Pfad_1" data-name="Pfad 1" d="M143.435,90.679l-6.372,182.231,151.875-4.643,6.374-182.224Zm0,0" transform="translate(-143.454 -90.834)" fill="url(#linear-gradient)"/>
    </g>
  </g>
  <g id="Gruppe_5" data-name="Gruppe 5" transform="translate(0 227.363)">
    <g id="Gruppe_4" data-name="Gruppe 4" transform="translate(0 0)">
      <g id="Gruppe_3" data-name="Gruppe 3" transform="translate(0 0)">
        <path id="Pfad_4" data-name="Pfad 4" d="M36.129,7.294H13.5v-35.58H3.484V15.709H36.129Zm0,0" transform="translate(-3.484 28.285)" fill="#fff"/>
      </g>
    </g>
  </g>
  <g id="Gruppe_8" data-name="Gruppe 8" transform="translate(38.129 227.363)">
    <g id="Gruppe_7" data-name="Gruppe 7" transform="translate(0 0)">
      <g id="Gruppe_6" data-name="Gruppe 6" transform="translate(0 0)">
        <path id="Pfad_5" data-name="Pfad 5" d="M29.489,3.278,33.5,15.709H44.344L28.656-28.285H16.286L.41,15.709H11.061L15.138,3.278ZM22.344-19.615,27-4.565H17.629Zm0,0" transform="translate(-0.41 28.285)" fill="#fff"/>
      </g>
    </g>
  </g>
  <g id="Gruppe_11" data-name="Gruppe 11" transform="translate(90.603 227.363)">
    <g id="Gruppe_10" data-name="Gruppe 10" transform="translate(0 0)">
      <g id="Gruppe_9" data-name="Gruppe 9" transform="translate(0 0)">
        <path id="Pfad_6" data-name="Pfad 6" d="M52.2-28.285h-15.3L28.036,6.207,19.172-28.285H3.484V15.709H13.5V-3.8c0-4.277,0-10.013-.128-14.539.826,4.526,2.3,10.262,3.506,14.472L22.55,15.709H33.134L38.681-3.867c1.276-4.211,2.74-10.013,3.633-14.539-.128,4.527-.128,10.329-.128,14.606V15.709H52.2Zm0,0" transform="translate(-3.484 28.285)" fill="#fff"/>
      </g>
    </g>
  </g>
  <g id="Gruppe_14" data-name="Gruppe 14" transform="translate(147.477 227.363)">
    <g id="Gruppe_13" data-name="Gruppe 13" transform="translate(0 0)">
      <g id="Gruppe_12" data-name="Gruppe 12" transform="translate(0 0)">
        <path id="Pfad_7" data-name="Pfad 7" d="M29.489,3.278,33.5,15.709H44.344L28.656-28.285H16.286L.41,15.709H11.061L15.138,3.278ZM22.344-19.615,27-4.565H17.629Zm0,0" transform="translate(-0.41 28.285)" fill="#fff"/>
      </g>
    </g>
  </g>
  <g id="Gruppe_17" data-name="Gruppe 17" transform="translate(196.573 250.572)">
    <g id="Gruppe_16" data-name="Gruppe 16" transform="translate(0 0)">
      <g id="Gruppe_15" data-name="Gruppe 15" transform="translate(0 0)">
        <path id="Pfad_8" data-name="Pfad 8" d="M16.617-7.883v-5.48H1.312v5.48Zm0,0" transform="translate(-1.312 13.363)" fill="#fff"/>
      </g>
    </g>
  </g>
  <g id="Gruppe_20" data-name="Gruppe 20" transform="translate(223.032 227.363)">
    <g id="Gruppe_19" data-name="Gruppe 19" transform="translate(0 0)">
      <g id="Gruppe_18" data-name="Gruppe 18" transform="translate(0 0)">
        <path id="Pfad_9" data-name="Pfad 9" d="M13.5,15.709V-28.285H3.484V15.709Zm0,0" transform="translate(-3.484 28.285)" fill="#fff"/>
      </g>
    </g>
  </g>
  <g id="Gruppe_23" data-name="Gruppe 23" transform="translate(245.986 227.363)">
    <g id="Gruppe_22" data-name="Gruppe 22" transform="translate(0 0)">
      <g id="Gruppe_21" data-name="Gruppe 21" transform="translate(0 0)">
        <path id="Pfad_10" data-name="Pfad 10" d="M24.907-28.03a40.321,40.321,0,0,0-5.608-.255H3.484V15.709H19.233a40.42,40.42,0,0,0,5.614-.255c10.2-1.209,18.428-8.737,18.428-22.316S35.109-26.882,24.907-28.03ZM22.423,7.738c-1.464.128-2.613.128-4.466.128H13.5V-20.508h4.526c1.847,0,3,.061,4.46.188,6.185.7,10.268,5.3,10.268,13.585C32.751,1.747,28.608,7.039,22.423,7.738Zm0,0" transform="translate(-3.484 28.285)" fill="#fff"/>
      </g>
    </g>
  </g>
  <g id="Gruppe_26" data-name="Gruppe 26" transform="translate(50.055 294.868)">
    <g id="Gruppe_25" data-name="Gruppe 25" transform="translate(0 0)">
      <g id="Gruppe_24" data-name="Gruppe 24" transform="translate(0 0)">
        <path id="Pfad_11" data-name="Pfad 11" d="M3.127,4.564V-11.555H1.273V6.417H9.549V4.564Zm0,0" transform="translate(-1.273 11.555)" fill="#49bccb"/>
      </g>
    </g>
  </g>
  <g id="Gruppe_29" data-name="Gruppe 29" transform="translate(64.834 300.944)">
    <g id="Gruppe_28" data-name="Gruppe 28" transform="translate(0 0)">
      <g id="Gruppe_27" data-name="Gruppe 27" transform="translate(0 0)">
        <path id="Pfad_12" data-name="Pfad 12" d="M10.809-1.567A4.121,4.121,0,0,1,9.618,1.392a3.841,3.841,0,0,1-2.9,1.27,3.859,3.859,0,0,1-2.935-1.27A4.1,4.1,0,0,1,2.613-1.567,4.178,4.178,0,0,1,3.779-4.526,3.838,3.838,0,0,1,6.714-5.8a3.82,3.82,0,0,1,2.9,1.27A4.2,4.2,0,0,1,10.809-1.567Zm1.853,5.814V-7.381H10.809v2a4.1,4.1,0,0,0-.346-.419,5.292,5.292,0,0,0-4.04-1.853A5.318,5.318,0,0,0,2.351-5.8,6.225,6.225,0,0,0,.766-1.567,6.139,6.139,0,0,0,2.351,2.662,5.238,5.238,0,0,0,6.422,4.515a5.212,5.212,0,0,0,4.04-1.853,2.266,2.266,0,0,0,.346-.395V4.248Zm0,0" transform="translate(-0.766 7.648)" fill="#49bccb"/>
      </g>
    </g>
  </g>
  <g id="Gruppe_32" data-name="Gruppe 32" transform="translate(85.475 300.889)">
    <g id="Gruppe_31" data-name="Gruppe 31" transform="translate(0 0)">
      <g id="Gruppe_30" data-name="Gruppe 30" transform="translate(0 0)">
        <path id="Pfad_13" data-name="Pfad 13" d="M16.025,4.213h1.853V-3.054A5.276,5.276,0,0,0,16.9-6.28a3.707,3.707,0,0,0-1.221-1,4.162,4.162,0,0,0-1.956-.4,3.7,3.7,0,0,0-2.139.662A5.324,5.324,0,0,0,10.211-5.46a5.524,5.524,0,0,0-.474-.82,3.708,3.708,0,0,0-1.221-1,4.161,4.161,0,0,0-1.956-.4,3.7,3.7,0,0,0-2.139.662A4.7,4.7,0,0,0,3.127-5.539V-7.416H1.273V4.213H3.127V-1.735a5.623,5.623,0,0,1,.711-2.406A3.67,3.67,0,0,1,4.974-5.357,2.713,2.713,0,0,1,6.511-5.83a2.385,2.385,0,0,1,1.215.267A2.767,2.767,0,0,1,8.862-3.054V4.213h1.853V-3.054c0-.134-.03-.292-.03-.425A3.313,3.313,0,0,1,11-4.141a3.67,3.67,0,0,1,1.136-1.215,2.713,2.713,0,0,1,1.537-.474,2.385,2.385,0,0,1,1.215.267,2.766,2.766,0,0,1,1.136,2.509Zm0,0" transform="translate(-1.273 7.684)" fill="#49bccb"/>
      </g>
    </g>
  </g>
  <g id="Gruppe_35" data-name="Gruppe 35" transform="translate(109.637 300.944)">
    <g id="Gruppe_34" data-name="Gruppe 34" transform="translate(0 0)">
      <g id="Gruppe_33" data-name="Gruppe 33" transform="translate(0 0)">
        <path id="Pfad_14" data-name="Pfad 14" d="M10.809-1.567A4.121,4.121,0,0,1,9.618,1.392a3.841,3.841,0,0,1-2.9,1.27,3.859,3.859,0,0,1-2.935-1.27A4.1,4.1,0,0,1,2.613-1.567,4.178,4.178,0,0,1,3.779-4.526,3.838,3.838,0,0,1,6.714-5.8a3.82,3.82,0,0,1,2.9,1.27A4.2,4.2,0,0,1,10.809-1.567Zm1.853,5.814V-7.381H10.809v2a4.1,4.1,0,0,0-.346-.419,5.292,5.292,0,0,0-4.04-1.853A5.318,5.318,0,0,0,2.351-5.8,6.225,6.225,0,0,0,.766-1.567,6.139,6.139,0,0,0,2.351,2.662,5.238,5.238,0,0,0,6.422,4.515a5.212,5.212,0,0,0,4.04-1.853,2.266,2.266,0,0,0,.346-.395V4.248Zm0,0" transform="translate(-0.766 7.648)" fill="#49bccb"/>
      </g>
    </g>
  </g>
  <g id="Gruppe_38" data-name="Gruppe 38" transform="translate(130.277 300.974)">
    <g id="Gruppe_37" data-name="Gruppe 37" transform="translate(0 0)">
      <g id="Gruppe_36" data-name="Gruppe 36" transform="translate(0 0)">
        <path id="Pfad_15" data-name="Pfad 15" d="M7.252-4.986V-7.392a2.988,2.988,0,0,0-1.167-.237,3.043,3.043,0,0,0-2.88,2.163l-.079.48V-7.392H1.273V4.237H3.127V-1.577a4.934,4.934,0,0,1,.662-2.564A3.087,3.087,0,0,1,4.633-5.15a2.019,2.019,0,0,1,1.239-.419A2.176,2.176,0,0,1,7.252-4.986Zm0,0" transform="translate(-1.273 7.629)" fill="#49bccb"/>
      </g>
    </g>
  </g>
  <g id="Gruppe_41" data-name="Gruppe 41" transform="translate(143.283 293.015)">
    <g id="Gruppe_40" data-name="Gruppe 40" transform="translate(0 0)">
      <g id="Gruppe_39" data-name="Gruppe 39" transform="translate(0 0)">
        <path id="Pfad_16" data-name="Pfad 16" d="M3.127,7.079V1.5L7.7,7.079h2.455l-5.1-6L9.84-4.58H7.38L3.127.681V-12.746H1.273V7.079Zm0,0" transform="translate(-1.273 12.746)" fill="#49bccb"/>
      </g>
    </g>
  </g>
  <g id="Gruppe_44" data-name="Gruppe 44" transform="translate(158.406 300.889)">
    <g id="Gruppe_43" data-name="Gruppe 43" transform="translate(0 0)">
      <g id="Gruppe_42" data-name="Gruppe 42" transform="translate(0 0)">
        <path id="Pfad_17" data-name="Pfad 17" d="M12.923-1.814a5.648,5.648,0,0,0-1.847-4.15A5.969,5.969,0,0,0,6.841-7.684a5.892,5.892,0,0,0-4.308,1.8A5.825,5.825,0,0,0,.766-1.6,5.73,5.73,0,0,0,2.534,2.682,6.1,6.1,0,0,0,4.466,3.976a6.671,6.671,0,0,0,2.643.474A5.621,5.621,0,0,0,10.147,3.5,5.968,5.968,0,0,0,12.395.859H10.28A4.542,4.542,0,0,1,8.749,2.153a4.061,4.061,0,0,1-1.908.45A4.063,4.063,0,0,1,4.15,1.624,3.82,3.82,0,0,1,2.692-.836H12.923Zm-1.956-.608H2.722a4.334,4.334,0,0,1,.553-1.349A3.976,3.976,0,0,1,6.841-5.83a3.978,3.978,0,0,1,2.619.954A4.409,4.409,0,0,1,10.967-2.422Zm0,0" transform="translate(-0.766 7.684)" fill="#49bccb"/>
      </g>
    </g>
  </g>
  <g id="Gruppe_47" data-name="Gruppe 47" transform="translate(176.933 296.691)">
    <g id="Gruppe_46" data-name="Gruppe 46" transform="translate(0 0)">
      <g id="Gruppe_45" data-name="Gruppe 45" transform="translate(0 0)">
        <path id="Pfad_18" data-name="Pfad 18" d="M.34-4.149H3.25V5.767H5.1V-4.149h2.88V-5.862H5.1v-4.52H3.25v4.52H.34Zm0,0" transform="translate(-0.34 10.383)" fill="#49bccb"/>
      </g>
    </g>
  </g>
  <g id="Gruppe_50" data-name="Gruppe 50" transform="translate(191.739 296.848)">
    <g id="Gruppe_49" data-name="Gruppe 49" transform="translate(0 0)">
      <g id="Gruppe_48" data-name="Gruppe 48" transform="translate(0 0)">
        <path id="Pfad_19" data-name="Pfad 19" d="M3.2-9.941a1.291,1.291,0,0,0-.845-.34,1.184,1.184,0,0,0-.82.34,1.169,1.169,0,0,0-.34.851,1.044,1.044,0,0,0,.34.814,1.05,1.05,0,0,0,.82.346A1.137,1.137,0,0,0,3.2-8.276a1.139,1.139,0,0,0,.346-.814A1.282,1.282,0,0,0,3.2-9.941ZM3.306,5.71V-5.919H1.453V5.71Zm0,0" transform="translate(-1.191 10.281)" fill="#49bccb"/>
      </g>
    </g>
  </g>
  <g id="Gruppe_53" data-name="Gruppe 53" transform="translate(202.705 300.974)">
    <g id="Gruppe_52" data-name="Gruppe 52" transform="translate(0 0)">
      <g id="Gruppe_51" data-name="Gruppe 51" transform="translate(0 0)">
        <path id="Pfad_20" data-name="Pfad 20" d="M9.312,4.237h1.847V-3.03A4.89,4.89,0,0,0,10.1-6.286a3.944,3.944,0,0,0-1.294-.978,4.887,4.887,0,0,0-2-.365,3.881,3.881,0,0,0-2.2.656A4.57,4.57,0,0,0,3.127-5.387v-2H1.273V4.237H3.127V-.63a6.423,6.423,0,0,1,.82-3.512A3.989,3.989,0,0,1,5.162-5.332a3.7,3.7,0,0,1,1.926-.45,1.879,1.879,0,0,1,1.7.82A3.546,3.546,0,0,1,9.312-3.03Zm0,0" transform="translate(-1.273 7.629)" fill="#49bccb"/>
      </g>
    </g>
  </g>
  <g id="Gruppe_56" data-name="Gruppe 56" transform="translate(220.202 300.944)">
    <g id="Gruppe_55" data-name="Gruppe 55" transform="translate(0 0)">
      <g id="Gruppe_54" data-name="Gruppe 54" transform="translate(0 0)">
        <path id="Pfad_21" data-name="Pfad 21" d="M10.949-1.567A4.121,4.121,0,0,1,9.759,1.392a3.841,3.841,0,0,1-2.9,1.27,3.863,3.863,0,0,1-2.91-1.27A4.105,4.105,0,0,1,2.753-1.567,4.187,4.187,0,0,1,3.944-4.526,3.842,3.842,0,0,1,6.854-5.8a3.82,3.82,0,0,1,2.9,1.27A4.2,4.2,0,0,1,10.949-1.567ZM2.7,5.834H.8A5.781,5.781,0,0,0,2.516,9.084a5.739,5.739,0,0,0,4.259,1.774,5.812,5.812,0,0,0,4.253-1.774A5.809,5.809,0,0,0,12.8,4.831V-7.381H10.949v1.956c-.1-.109-.213-.243-.316-.371A5.466,5.466,0,0,0,6.587-7.648,5.34,5.34,0,0,0,2.492-5.8,6.225,6.225,0,0,0,.906-1.567,6.139,6.139,0,0,0,2.492,2.662a5.26,5.26,0,0,0,4.1,1.853,5.233,5.233,0,0,0,4.046-1.853c.1-.1.213-.237.316-.346V4.831A4.03,4.03,0,0,1,9.71,7.79,3.992,3.992,0,0,1,6.775,9.005,4.011,4.011,0,0,1,3.81,7.79,3.884,3.884,0,0,1,2.7,5.834Zm0,0" transform="translate(-0.797 7.648)" fill="#49bccb"/>
      </g>
    </g>
  </g>
</svg>
