<svg id="Logo_schwarze-Schrift" xmlns="http://www.w3.org/2000/svg" xmlns:xlink="http://www.w3.org/1999/xlink" width="111.738" height="129.363" viewBox="0 0 111.738 129.363">
  <defs>
    <clipPath id="clip-path">
      <path id="Pfad_24" data-name="Pfad 24" d="M131.25,81.668h68.417v78.794H131.25Zm0,0" transform="translate(-131.25 -81.668)"/>
    </clipPath>
    <clipPath id="clip-path-2">
      <path id="Pfad_23" data-name="Pfad 23" d="M141.741,81.668h47.436a10.488,10.488,0,0,1,10.491,10.491v57.812a10.487,10.487,0,0,1-10.491,10.491H141.741a10.487,10.487,0,0,1-10.491-10.491V92.159a10.488,10.488,0,0,1,10.491-10.491Zm0,0" transform="translate(-131.25 -81.668)"/>
    </clipPath>
    <clipPath id="clip-path-3">
      <path id="Pfad_27" data-name="Pfad 27" d="M141,89h57.167v69.938H141Zm0,0" transform="translate(-141 -89)"/>
    </clipPath>
    <clipPath id="clip-path-4">
      <path id="Pfad_26" data-name="Pfad 26" d="M144.538,98.363c.437-2.843,3.243-4.986,5.554-5.791a17.142,17.142,0,0,1,4.409-.986c1.287-.057,1.532.907.81,1.288a34.973,34.973,0,0,0-8.939,6.585C145.566,100.309,144.357,99.515,144.538,98.363Zm12.833,35.62a2.46,2.46,0,0,0,1.577-.437,17.859,17.859,0,0,0,4.075-4.473,23.09,23.09,0,0,0,3.064-6.695,2.7,2.7,0,0,1,2.617-2.33,2.94,2.94,0,0,1,.708.09c1.483.369,2.228,1.924,1.984,4.171a12.087,12.087,0,0,1-1.352,4.1,2.454,2.454,0,0,0-.323,1.9,2.191,2.191,0,0,0,1.057,1.377,1.658,1.658,0,0,0,.856.23,3.288,3.288,0,0,0,2.561-1.672l.066-.1a14.5,14.5,0,0,0,2.283-6.442c.3-3.716-.772-6.333-3.269-8.015a7.957,7.957,0,0,0-4.428-1.261,8.4,8.4,0,0,0-2.523.38c-3.513,1.14-4.266,3.418-5.072,5.825a22.479,22.479,0,0,1-2.568,5.678,23.927,23.927,0,0,1-2.718,3.841,2.164,2.164,0,0,0-.449,2.922,2.434,2.434,0,0,0,1.807.889Zm-7.75-26.357a1.829,1.829,0,0,0,1.468-.739,21.719,21.719,0,0,1,16.7-8.973c.4-.026.83-.038,1.273-.038a22.4,22.4,0,0,1,9.417,1.917,1.834,1.834,0,0,0,.8.185,1.863,1.863,0,0,0,1.672-1.081,1.95,1.95,0,0,0,.078-1.453,1.868,1.868,0,0,0-.948-1.088,26.317,26.317,0,0,0-11.063-2.29c-.5,0-.991.012-1.449.045a25.532,25.532,0,0,0-19.411,10.446,1.951,1.951,0,0,0,.328,2.677,1.814,1.814,0,0,0,1.069.4A.214.214,0,0,1,149.622,107.626ZM143.7,131.762a21.41,21.41,0,0,0,8.942-8.585c1.134-2.014,1.962-3.848,2.689-5.464a16.359,16.359,0,0,1,4.469-6.006,2.061,2.061,0,0,0,.268-2.794,3.042,3.042,0,0,0-1.924-1.145,2.237,2.237,0,0,0-1.544.6,21.931,21.931,0,0,0-5.316,7.761c-.727,1.611-1.48,3.276-2.523,5.132a17.021,17.021,0,0,1-5.768,6.093,1.575,1.575,0,0,0-.758,1.72c.212.817.468,1.641.758,2.444a.5.5,0,0,0,.471.3A.454.454,0,0,0,143.7,131.762Zm-1.924-10.882a.484.484,0,0,0,.335-.136,22.525,22.525,0,0,0,4.447-7.055,1.558,1.558,0,0,0-.012-1.326,1.885,1.885,0,0,0-1.216-.991,1.83,1.83,0,0,0-.527-.071,2.084,2.084,0,0,0-1.868,1.178,15.408,15.408,0,0,0-1.513,5.317,8.213,8.213,0,0,0,.014,2.948A.456.456,0,0,0,141.775,120.879Zm28.9,26.806a3.389,3.389,0,0,0,1.487-.385c2.967-1.654,7.127-6.295,9.044-8.83,8.6-11.374,6.322-22.483,1.758-28.541a16.461,16.461,0,0,0-13.491-6.545,20.789,20.789,0,0,0-3.245.257c-1.2.188-1.834,1.661-1.646,2.865a2.209,2.209,0,0,0,2.169,1.86,2.122,2.122,0,0,0,.34-.026,15.881,15.881,0,0,1,2.5-.2c5.818,0,8.785,3,9.866,4.447,3.642,4.834,5.369,13.812-1.751,23.224a61.891,61.891,0,0,1-7.9,8.431,2.538,2.538,0,0,0-.907,1.867,1.416,1.416,0,0,0,.49,1.131A1.967,1.967,0,0,0,170.675,147.685Zm-14.784.29c3.932-2.316,8.965-5.826,12.016-9.274a2.169,2.169,0,0,0,.515-1.842,2.208,2.208,0,0,0-1.145-1.57,2.02,2.02,0,0,0-.972-.244,2.35,2.35,0,0,0-1.751.812c-3.445,3.86-9.519,7.64-13.156,9.614a.363.363,0,0,0-.181.252.371.371,0,0,0,.091.309c.508.542,1.036,1.076,1.563,1.59a2.476,2.476,0,0,0,1.739.7A2.433,2.433,0,0,0,155.891,147.976Zm5.754,5.922a2.876,2.876,0,0,0,1.487-.418c.49-.3.991-.617,1.506-.945a1.881,1.881,0,0,0,.456-2.749,1.821,1.821,0,0,0-1.454-.677,2.113,2.113,0,0,0-1.126.328c-1.255.805-2.568,1.6-3.889,2.364a.352.352,0,0,0-.173.282.343.343,0,0,0,.142.3c.5.366,1,.713,1.48,1.041A2.838,2.838,0,0,0,161.645,153.9Zm33.014-21.319A31.779,31.779,0,0,0,196,118.473c-.2-1.592-.482-3.279-.836-4.97a34.3,34.3,0,0,0-1.416-3.844,25.559,25.559,0,0,0-6.49-8.914,1.906,1.906,0,0,0-2.523,2.858,21.8,21.8,0,0,1,5.523,7.595,26.767,26.767,0,0,1,.96,19.772,1.861,1.861,0,0,0,.09,1.453,1.9,1.9,0,0,0,1.093.967,1.854,1.854,0,0,0,.618.1A1.885,1.885,0,0,0,194.658,132.579Zm-25.341,25.882a57.873,57.873,0,0,0,16.722-11.424,47.813,47.813,0,0,0,4.628-5.535,1.94,1.94,0,0,0-.632-2.808,1.83,1.83,0,0,0-.9-.238,2.081,2.081,0,0,0-1.675.877c-4.556,6.4-11.579,12.17-20.865,17.152a.478.478,0,0,0-.259.432.469.469,0,0,0,.263.423c1.05.535,1.848.9,2.33,1.107a.51.51,0,0,0,.193.041A.348.348,0,0,0,169.318,158.461Zm-20.713-17.148a2.265,2.265,0,0,0,1.178-.328c.558-.334,1.119-.7,1.665-1.069a2.462,2.462,0,0,0,.6-3.5,2.382,2.382,0,0,0-1.955-.952,2.78,2.78,0,0,0-1.544.47,29.748,29.748,0,0,1-2.858,1.687.49.49,0,0,0-.2.682c.373.663.772,1.318,1.19,1.963A2.269,2.269,0,0,0,148.605,141.314Zm20.957-52.056a7.431,7.431,0,0,0-2.808,0c-.952.192-.836,1.107.1,1.19.445.038,1.314.026,1.314.026s.867.012,1.311-.026C170.406,90.365,170.392,89.417,169.562,89.257ZM142.414,106.21c.275-.475.739-1.454.739-1.454s.482-.967.7-1.475c.437-1.073-1-1.665-1.855-.354a5.144,5.144,0,0,0-.822,2.789C141.165,107.272,141.835,107.222,142.414,106.21Zm50.448-6.752a35.293,35.293,0,0,0-8.942-6.585c-.72-.38-.475-1.338.813-1.288a17.229,17.229,0,0,1,4.409.986c2.309.805,5.122,2.948,5.554,5.791C194.863,99.515,193.654,100.309,192.863,99.458Zm5.193,6.262a5.029,5.029,0,0,0-.824-2.787c-.856-1.314-2.29-.72-1.853.354.207.516.7,1.475.7,1.475s.463.976.739,1.453C197.393,107.222,198.056,107.272,198.056,105.72Zm0,0" transform="translate(-141.172 -89.124)"/>
    </clipPath>
    <linearGradient id="linear-gradient" x1="-5.379" y1="-2.307" x2="-4.137" y2="-1.422" gradientUnits="objectBoundingBox">
      <stop offset="0" stop-color="#49bccb"/>
      <stop offset="0.063" stop-color="#49bccb"/>
      <stop offset="0.094" stop-color="#49bccb"/>
      <stop offset="0.102" stop-color="#49bccc"/>
      <stop offset="0.109" stop-color="#49bccc"/>
      <stop offset="0.117" stop-color="#49bccd"/>
      <stop offset="0.125" stop-color="#49bccd"/>
      <stop offset="0.133" stop-color="#49bcce"/>
      <stop offset="0.141" stop-color="#49bcce"/>
      <stop offset="0.148" stop-color="#49bccf"/>
      <stop offset="0.156" stop-color="#49bcd0"/>
      <stop offset="0.164" stop-color="#49bcd0"/>
      <stop offset="0.172" stop-color="#49bcd1"/>
      <stop offset="0.18" stop-color="#49bcd1"/>
      <stop offset="0.188" stop-color="#49bcd2"/>
      <stop offset="0.195" stop-color="#49bcd2"/>
      <stop offset="0.203" stop-color="#49bcd3"/>
      <stop offset="0.211" stop-color="#49bcd3"/>
      <stop offset="0.219" stop-color="#49bcd4"/>
      <stop offset="0.227" stop-color="#49bcd5"/>
      <stop offset="0.234" stop-color="#49bcd5"/>
      <stop offset="0.242" stop-color="#49bcd6"/>
      <stop offset="0.25" stop-color="#49bcd6"/>
      <stop offset="0.258" stop-color="#49bcd7"/>
      <stop offset="0.266" stop-color="#49bcd7"/>
      <stop offset="0.273" stop-color="#49bcd8"/>
      <stop offset="0.281" stop-color="#49bcd9"/>
      <stop offset="0.289" stop-color="#49bcd9"/>
      <stop offset="0.297" stop-color="#49bcda"/>
      <stop offset="0.305" stop-color="#49bcda"/>
      <stop offset="0.313" stop-color="#49bcdb"/>
      <stop offset="0.32" stop-color="#49bcdb"/>
      <stop offset="0.328" stop-color="#49bcdc"/>
      <stop offset="0.336" stop-color="#49bcdc"/>
      <stop offset="0.344" stop-color="#49bcdd"/>
      <stop offset="0.352" stop-color="#49bcde"/>
      <stop offset="0.359" stop-color="#49bcde"/>
      <stop offset="0.367" stop-color="#49bcdf"/>
      <stop offset="0.375" stop-color="#49bcdf"/>
      <stop offset="0.383" stop-color="#49bce0"/>
      <stop offset="0.391" stop-color="#49bce0"/>
      <stop offset="0.398" stop-color="#49bce1"/>
      <stop offset="0.406" stop-color="#49bce1"/>
      <stop offset="0.414" stop-color="#49bce2"/>
      <stop offset="0.422" stop-color="#49bce3"/>
      <stop offset="0.43" stop-color="#49bce3"/>
      <stop offset="0.438" stop-color="#49bce4"/>
      <stop offset="0.445" stop-color="#49bce4"/>
      <stop offset="0.453" stop-color="#49bce5"/>
      <stop offset="0.46" stop-color="#49bce5"/>
      <stop offset="0.461" stop-color="#49bce6"/>
      <stop offset="0.469" stop-color="#49bce6"/>
      <stop offset="0.477" stop-color="#49bce6"/>
      <stop offset="0.484" stop-color="#49bce7"/>
      <stop offset="0.492" stop-color="#49bce8"/>
      <stop offset="0.5" stop-color="#49bce8"/>
      <stop offset="0.508" stop-color="#49bce9"/>
      <stop offset="0.516" stop-color="#49bce9"/>
      <stop offset="0.523" stop-color="#49bcea"/>
      <stop offset="0.531" stop-color="#49bcea"/>
      <stop offset="0.539" stop-color="#49bceb"/>
      <stop offset="0.54" stop-color="#49bceb"/>
      <stop offset="0.547" stop-color="#49bcec"/>
      <stop offset="0.555" stop-color="#49bcec"/>
      <stop offset="0.563" stop-color="#49bced"/>
      <stop offset="0.57" stop-color="#49bced"/>
      <stop offset="0.578" stop-color="#49bcee"/>
      <stop offset="0.586" stop-color="#49bcee"/>
      <stop offset="0.594" stop-color="#49bcef"/>
      <stop offset="0.602" stop-color="#49bcef"/>
      <stop offset="0.609" stop-color="#49bcf0"/>
      <stop offset="0.617" stop-color="#49bcf1"/>
      <stop offset="0.625" stop-color="#49bcf1"/>
      <stop offset="0.633" stop-color="#49bcf2"/>
      <stop offset="0.641" stop-color="#49bcf2"/>
      <stop offset="0.648" stop-color="#49bcf3"/>
      <stop offset="0.656" stop-color="#49bcf3"/>
      <stop offset="0.664" stop-color="#49bcf4"/>
      <stop offset="0.672" stop-color="#49bcf4"/>
      <stop offset="0.68" stop-color="#49bcf5"/>
      <stop offset="0.688" stop-color="#49bcf6"/>
      <stop offset="0.695" stop-color="#49bcf6"/>
      <stop offset="0.703" stop-color="#49bcf7"/>
      <stop offset="0.711" stop-color="#49bcf7"/>
      <stop offset="0.719" stop-color="#49bcf8"/>
      <stop offset="0.727" stop-color="#49bcf8"/>
      <stop offset="0.734" stop-color="#49bcf9"/>
      <stop offset="0.742" stop-color="#49bcf9"/>
      <stop offset="0.75" stop-color="#49bcfa"/>
      <stop offset="0.758" stop-color="#49bcfb"/>
      <stop offset="0.766" stop-color="#49bcfb"/>
      <stop offset="0.773" stop-color="#49bcfc"/>
      <stop offset="0.781" stop-color="#49bcfc"/>
      <stop offset="0.789" stop-color="#49bcfd"/>
      <stop offset="0.797" stop-color="#49bcfd"/>
      <stop offset="0.805" stop-color="#49bcfe"/>
      <stop offset="0.813" stop-color="#49bcfe"/>
      <stop offset="0.875" stop-color="#49bcff"/>
      <stop offset="1" stop-color="#49bcff"/>
    </linearGradient>
  </defs>
  <g id="Gruppe_59" data-name="Gruppe 59" transform="translate(20.976)" clip-path="url(#clip-path)">
    <g id="Gruppe_58" data-name="Gruppe 58" clip-path="url(#clip-path-2)">
      <path id="Pfad_22" data-name="Pfad 22" d="M131.25,81.668h68.417v78.794H131.25Zm0,0" transform="translate(-131.25 -81.668)"/>
    </g>
  </g>
  <g id="Gruppe_61" data-name="Gruppe 61" transform="translate(26.905 4.459)" clip-path="url(#clip-path-3)">
    <g id="Gruppe_60" data-name="Gruppe 60" transform="translate(0.105 0.075)" clip-path="url(#clip-path-4)">
      <path id="Pfad_25" data-name="Pfad 25" d="M139.555,87.856l-2.492,71.252,59.383-1.815,2.492-71.249Zm0,0" transform="translate(-139.562 -87.916)" fill="url(#linear-gradient)"/>
    </g>
  </g>
  <g id="Gruppe_64" data-name="Gruppe 64" transform="translate(0 93.357)">
    <g id="Gruppe_63" data-name="Gruppe 63" transform="translate(0 0)">
      <g id="Gruppe_62" data-name="Gruppe 62" transform="translate(0 0)">
        <path id="Pfad_28" data-name="Pfad 28" d="M16.249-14.374H7.4V-28.285H3.484v17.2H16.249Zm0,0" transform="translate(-3.484 28.285)"/>
      </g>
    </g>
  </g>
  <g id="Gruppe_67" data-name="Gruppe 67" transform="translate(14.908 93.357)">
    <g id="Gruppe_66" data-name="Gruppe 66" transform="translate(0 0)">
      <g id="Gruppe_65" data-name="Gruppe 65" transform="translate(0 0)">
        <path id="Pfad_29" data-name="Pfad 29" d="M11.78-15.944l1.57,4.86h4.238l-6.134-17.2H6.618L.41-11.083H4.575l1.594-4.86ZM8.986-24.9l1.82,5.884H7.143Zm0,0" transform="translate(-0.41 28.285)"/>
      </g>
    </g>
  </g>
  <g id="Gruppe_70" data-name="Gruppe 70" transform="translate(35.425 93.357)">
    <g id="Gruppe_69" data-name="Gruppe 69" transform="translate(0 0)">
      <g id="Gruppe_68" data-name="Gruppe 68" transform="translate(0 0)">
        <path id="Pfad_30" data-name="Pfad 30" d="M22.532-28.285H16.548L13.084-14.8,9.618-28.285H3.484v17.2H7.4v-7.628c0-1.672,0-3.915-.05-5.685.323,1.77.9,4.012,1.371,5.659l2.219,7.654h4.138l2.169-7.654c.5-1.646,1.071-3.915,1.421-5.685-.05,1.77-.05,4.039-.05,5.711v7.628h3.915Zm0,0" transform="translate(-3.484 28.285)"/>
      </g>
    </g>
  </g>
  <g id="Gruppe_73" data-name="Gruppe 73" transform="translate(57.663 93.357)">
    <g id="Gruppe_72" data-name="Gruppe 72" transform="translate(0 0)">
      <g id="Gruppe_71" data-name="Gruppe 71" transform="translate(0 0)">
        <path id="Pfad_31" data-name="Pfad 31" d="M11.78-15.944l1.57,4.86h4.238l-6.134-17.2H6.618L.41-11.083H4.575l1.594-4.86ZM8.986-24.9l1.82,5.884H7.143Zm0,0" transform="translate(-0.41 28.285)"/>
      </g>
    </g>
  </g>
  <g id="Gruppe_76" data-name="Gruppe 76" transform="translate(76.859 102.432)">
    <g id="Gruppe_75" data-name="Gruppe 75" transform="translate(0 0)">
      <g id="Gruppe_74" data-name="Gruppe 74" transform="translate(0 0)">
        <path id="Pfad_32" data-name="Pfad 32" d="M7.3-11.22v-2.143H1.313v2.143Zm0,0" transform="translate(-1.313 13.363)"/>
      </g>
    </g>
  </g>
  <g id="Gruppe_79" data-name="Gruppe 79" transform="translate(87.205 93.357)">
    <g id="Gruppe_78" data-name="Gruppe 78" transform="translate(0 0)">
      <g id="Gruppe_77" data-name="Gruppe 77" transform="translate(0 0)">
        <path id="Pfad_33" data-name="Pfad 33" d="M7.4-11.083v-17.2H3.484v17.2Zm0,0" transform="translate(-3.484 28.285)"/>
      </g>
    </g>
  </g>
  <g id="Gruppe_82" data-name="Gruppe 82" transform="translate(96.18 93.357)">
    <g id="Gruppe_81" data-name="Gruppe 81" transform="translate(0 0)">
      <g id="Gruppe_80" data-name="Gruppe 80" transform="translate(0 0)">
        <path id="Pfad_34" data-name="Pfad 34" d="M11.861-28.185a15.765,15.765,0,0,0-2.193-.1H3.484v17.2H9.642a15.8,15.8,0,0,0,2.2-.1c3.989-.473,7.205-3.416,7.205-8.726S15.849-27.736,11.861-28.185ZM10.889-14.2c-.573.05-1.022.05-1.746.05H7.4V-25.244h1.77c.722,0,1.171.024,1.744.074,2.418.276,4.015,2.072,4.015,5.312C14.928-16.543,13.307-14.473,10.889-14.2Zm0,0" transform="translate(-3.484 28.285)"/>
      </g>
    </g>
  </g>
  <g id="Gruppe_85" data-name="Gruppe 85" transform="translate(19.571 119.752)">
    <g id="Gruppe_84" data-name="Gruppe 84" transform="translate(0 0)">
      <g id="Gruppe_83" data-name="Gruppe 83" transform="translate(0 0)">
        <path id="Pfad_35" data-name="Pfad 35" d="M2-5.252v-6.3H1.273v7.027H4.509v-.725Zm0,0" transform="translate(-1.273 11.555)" fill="#49bccb"/>
      </g>
    </g>
  </g>
  <g id="Gruppe_88" data-name="Gruppe 88" transform="translate(25.35 122.127)">
    <g id="Gruppe_87" data-name="Gruppe 87" transform="translate(0 0)">
      <g id="Gruppe_86" data-name="Gruppe 86" transform="translate(0 0)">
        <path id="Pfad_36" data-name="Pfad 36" d="M4.692-5.27a1.611,1.611,0,0,1-.466,1.157,1.5,1.5,0,0,1-1.136.5,1.509,1.509,0,0,1-1.147-.5A1.6,1.6,0,0,1,1.488-5.27a1.634,1.634,0,0,1,.456-1.157,1.5,1.5,0,0,1,1.147-.5,1.494,1.494,0,0,1,1.136.5A1.643,1.643,0,0,1,4.692-5.27ZM5.417-3V-7.544H4.692v.784a1.6,1.6,0,0,0-.135-.164,2.069,2.069,0,0,0-1.58-.725,2.079,2.079,0,0,0-1.592.725A2.434,2.434,0,0,0,.766-5.27a2.4,2.4,0,0,0,.62,1.653,2.048,2.048,0,0,0,1.592.725,2.038,2.038,0,0,0,1.58-.725.886.886,0,0,0,.135-.154V-3Zm0,0" transform="translate(-0.766 7.648)" fill="#49bccb"/>
      </g>
    </g>
  </g>
  <g id="Gruppe_91" data-name="Gruppe 91" transform="translate(33.42 122.106)">
    <g id="Gruppe_90" data-name="Gruppe 90" transform="translate(0 0)">
      <g id="Gruppe_89" data-name="Gruppe 89" transform="translate(0 0)">
        <path id="Pfad_37" data-name="Pfad 37" d="M7.041-3.032h.725V-5.873a2.063,2.063,0,0,0-.382-1.261,1.449,1.449,0,0,0-.477-.392,1.627,1.627,0,0,0-.765-.157,1.448,1.448,0,0,0-.836.259,2.082,2.082,0,0,0-.537.611,2.16,2.16,0,0,0-.185-.321,1.45,1.45,0,0,0-.477-.392,1.627,1.627,0,0,0-.765-.157,1.448,1.448,0,0,0-.836.259A1.837,1.837,0,0,0,2-6.845v-.734H1.273v4.547H2V-5.358A2.2,2.2,0,0,1,2.276-6.3a1.435,1.435,0,0,1,.444-.475,1.061,1.061,0,0,1,.6-.185.933.933,0,0,1,.475.1,1.082,1.082,0,0,1,.444.981v2.841h.725V-5.873c0-.052-.012-.114-.012-.166A1.3,1.3,0,0,1,5.077-6.3a1.435,1.435,0,0,1,.444-.475,1.061,1.061,0,0,1,.6-.185.932.932,0,0,1,.475.1,1.082,1.082,0,0,1,.444.981Zm0,0" transform="translate(-1.273 7.684)" fill="#49bccb"/>
      </g>
    </g>
  </g>
  <g id="Gruppe_94" data-name="Gruppe 94" transform="translate(42.868 122.127)">
    <g id="Gruppe_93" data-name="Gruppe 93" transform="translate(0 0)">
      <g id="Gruppe_92" data-name="Gruppe 92" transform="translate(0 0)">
        <path id="Pfad_38" data-name="Pfad 38" d="M4.692-5.27a1.611,1.611,0,0,1-.466,1.157,1.5,1.5,0,0,1-1.136.5,1.509,1.509,0,0,1-1.147-.5A1.6,1.6,0,0,1,1.488-5.27a1.634,1.634,0,0,1,.456-1.157,1.5,1.5,0,0,1,1.147-.5,1.494,1.494,0,0,1,1.136.5A1.643,1.643,0,0,1,4.692-5.27ZM5.417-3V-7.544H4.692v.784a1.6,1.6,0,0,0-.135-.164,2.069,2.069,0,0,0-1.58-.725,2.079,2.079,0,0,0-1.592.725A2.434,2.434,0,0,0,.766-5.27a2.4,2.4,0,0,0,.62,1.653,2.048,2.048,0,0,0,1.592.725,2.038,2.038,0,0,0,1.58-.725.886.886,0,0,0,.135-.154V-3Zm0,0" transform="translate(-0.766 7.648)" fill="#49bccb"/>
      </g>
    </g>
  </g>
  <g id="Gruppe_97" data-name="Gruppe 97" transform="translate(50.938 122.139)">
    <g id="Gruppe_96" data-name="Gruppe 96" transform="translate(0 0)">
      <g id="Gruppe_95" data-name="Gruppe 95" transform="translate(0 0)">
        <path id="Pfad_39" data-name="Pfad 39" d="M3.611-6.6v-.941a1.168,1.168,0,0,0-.456-.093,1.19,1.19,0,0,0-1.126.846L2-6.6v-.941H1.273v4.547H2V-5.263a1.929,1.929,0,0,1,.259-1,1.207,1.207,0,0,1,.33-.394.789.789,0,0,1,.485-.164A.851.851,0,0,1,3.611-6.6Zm0,0" transform="translate(-1.273 7.629)" fill="#49bccb"/>
      </g>
    </g>
  </g>
  <g id="Gruppe_100" data-name="Gruppe 100" transform="translate(56.023 119.027)">
    <g id="Gruppe_99" data-name="Gruppe 99" transform="translate(0 0)">
      <g id="Gruppe_98" data-name="Gruppe 98" transform="translate(0 0)">
        <path id="Pfad_40" data-name="Pfad 40" d="M2-4.995V-7.175L3.787-4.995h.96l-2-2.347L4.623-9.553H3.661L2-7.5v-5.25H1.273v7.752Zm0,0" transform="translate(-1.273 12.746)" fill="#49bccb"/>
      </g>
    </g>
  </g>
  <g id="Gruppe_103" data-name="Gruppe 103" transform="translate(61.936 122.106)">
    <g id="Gruppe_102" data-name="Gruppe 102" transform="translate(0 0)">
      <g id="Gruppe_101" data-name="Gruppe 101" transform="translate(0 0)">
        <path id="Pfad_41" data-name="Pfad 41" d="M5.519-5.389A2.208,2.208,0,0,0,4.8-7.011a2.334,2.334,0,0,0-1.656-.672,2.3,2.3,0,0,0-1.684.7A2.278,2.278,0,0,0,.766-5.306a2.241,2.241,0,0,0,.691,1.675,2.385,2.385,0,0,0,.755.506,2.609,2.609,0,0,0,1.033.185A2.2,2.2,0,0,0,4.434-3.31a2.333,2.333,0,0,0,.879-1.033H4.486a1.776,1.776,0,0,1-.6.506,1.588,1.588,0,0,1-.746.176,1.589,1.589,0,0,1-1.052-.382,1.494,1.494,0,0,1-.57-.962h4Zm-.765-.238H1.531a1.694,1.694,0,0,1,.216-.527,1.555,1.555,0,0,1,1.394-.805,1.555,1.555,0,0,1,1.024.373A1.724,1.724,0,0,1,4.754-5.626Zm0,0" transform="translate(-0.766 7.684)" fill="#49bccb"/>
      </g>
    </g>
  </g>
  <g id="Gruppe_106" data-name="Gruppe 106" transform="translate(69.18 120.464)">
    <g id="Gruppe_105" data-name="Gruppe 105" transform="translate(0 0)">
      <g id="Gruppe_104" data-name="Gruppe 104" transform="translate(0 0)">
        <path id="Pfad_42" data-name="Pfad 42" d="M.34-7.945H1.478v3.877H2.2V-7.945H3.326v-.67H2.2v-1.767H1.478v1.767H.34Zm0,0" transform="translate(-0.34 10.383)" fill="#49bccb"/>
      </g>
    </g>
  </g>
  <g id="Gruppe_109" data-name="Gruppe 109" transform="translate(74.969 120.526)">
    <g id="Gruppe_108" data-name="Gruppe 108" transform="translate(0 0)">
      <g id="Gruppe_107" data-name="Gruppe 107" transform="translate(0 0)">
        <path id="Pfad_43" data-name="Pfad 43" d="M1.975-10.148a.5.5,0,0,0-.33-.133.463.463,0,0,0-.321.133.457.457,0,0,0-.133.333.408.408,0,0,0,.133.318.411.411,0,0,0,.321.135.445.445,0,0,0,.33-.135.445.445,0,0,0,.135-.318A.5.5,0,0,0,1.975-10.148Zm.043,6.12V-8.576H1.294v4.547Zm0,0" transform="translate(-1.191 10.281)" fill="#49bccb"/>
      </g>
    </g>
  </g>
  <g id="Gruppe_112" data-name="Gruppe 112" transform="translate(79.257 122.139)">
    <g id="Gruppe_111" data-name="Gruppe 111" transform="translate(0 0)">
      <g id="Gruppe_110" data-name="Gruppe 110" transform="translate(0 0)">
        <path id="Pfad_44" data-name="Pfad 44" d="M4.416-2.989h.722V-5.831A1.912,1.912,0,0,0,4.725-7.1a1.542,1.542,0,0,0-.506-.382,1.911,1.911,0,0,0-.784-.143,1.517,1.517,0,0,0-.86.257A1.787,1.787,0,0,0,2-6.752v-.784H1.273v4.547H2v-1.9a2.511,2.511,0,0,1,.321-1.373,1.56,1.56,0,0,1,.475-.466,1.447,1.447,0,0,1,.753-.176.734.734,0,0,1,.663.321,1.386,1.386,0,0,1,.207.755Zm0,0" transform="translate(-1.273 7.629)" fill="#49bccb"/>
      </g>
    </g>
  </g>
  <g id="Gruppe_115" data-name="Gruppe 115" transform="translate(86.098 122.127)">
    <g id="Gruppe_114" data-name="Gruppe 114" transform="translate(0 0)">
      <g id="Gruppe_113" data-name="Gruppe 113" transform="translate(0 0)">
        <path id="Pfad_45" data-name="Pfad 45" d="M4.767-5.27A1.611,1.611,0,0,1,4.3-4.114a1.5,1.5,0,0,1-1.136.5,1.51,1.51,0,0,1-1.138-.5A1.605,1.605,0,0,1,1.562-5.27a1.637,1.637,0,0,1,.466-1.157,1.5,1.5,0,0,1,1.138-.5,1.494,1.494,0,0,1,1.136.5A1.643,1.643,0,0,1,4.767-5.27ZM1.543-2.377H.8a2.26,2.26,0,0,0,.672,1.271,2.244,2.244,0,0,0,1.665.694A2.273,2.273,0,0,0,4.8-1.106a2.271,2.271,0,0,0,.694-1.663V-7.544H4.767v.765c-.04-.043-.083-.1-.124-.145a2.137,2.137,0,0,0-1.582-.725,2.088,2.088,0,0,0-1.6.725A2.434,2.434,0,0,0,.84-5.27a2.4,2.4,0,0,0,.62,1.653,2.057,2.057,0,0,0,1.6.725,2.046,2.046,0,0,0,1.582-.725c.04-.04.083-.093.124-.135v.984a1.576,1.576,0,0,1-.485,1.157,1.561,1.561,0,0,1-1.147.475,1.568,1.568,0,0,1-1.159-.475A1.519,1.519,0,0,1,1.543-2.377Zm0,0" transform="translate(-0.797 7.648)" fill="#49bccb"/>
      </g>
    </g>
  </g>
</svg>
